<?xml version="1.0" encoding="UTF-8"?>
<svg width="32" height="32" version="1.1" viewBox="0 0 8.4667 8.4667" xmlns="http://www.w3.org/2000/svg">
 <circle transform="matrix(.16 0 0 .16 -28.778 -20.999)" cx="206.32" cy="157.7" r="24.012" fill="#2c2535" stroke="#f1c209" stroke-width="4.8936" style="paint-order:markers fill stroke"/>
 <circle transform="matrix(.16 0 0 .16 -28.778 -20.999)" cx="206.32" cy="157.7" r="19.04" fill="none" stroke="#f1c209" stroke-width="1.6081" style="paint-order:markers fill stroke"/>
 <path transform="matrix(.16 0 0 .16 -28.778 -20.999)" d="m220.23 163.02q-0.952 1.26-1.568 2.548-0.588 1.288-1.064 2.94-1.988-0.448-4.284-1.288-2.296-0.868-4.088-1.96v3.304h-5.824v-3.304q-1.848 1.092-4.144 1.96t-4.228 1.288q-0.476-1.652-1.092-2.94-0.588-1.288-1.54-2.548 2.912 0 5.544-0.28 2.66-0.28 4.648-0.728h-8.316v-9.744h9.128v-0.588h-10.164v-3.808h10.164v-1.036h5.824v1.036h10.164v3.808h-10.164v0.588h9.128v9.744h-8.316q1.988 0.448 4.62 0.728 2.66 0.28 5.572 0.28zm-16.828-7.084v-0.616h-3.444v0.616zm9.268 0v-0.616h-3.444v0.616zm-9.268 2.324h-3.444v0.616h3.444zm5.824 0v0.616h3.444v-0.616z" fill="#f1c209" stroke-width=".26458" aria-label="æ±"/>
</svg>
