<?xml version="1.0" encoding="UTF-8"?>
<svg width="1160" height="200" version="1.1" viewBox="0 0 307 52.92" xmlns="http://www.w3.org/2000/svg">
 <g transform="translate(-58.62 -132.3)">
  <path d="m80.41 141.4q9.552 0 13.3 3.408 3.744 3.36 3.744 9.504 0 4.224-1.488 7.2-1.488 2.928-5.232 4.608-3.744 1.632-10.32 1.632h-9.984v8.448h-11.81q0.384-9.312 0.384-17.42t-0.384-17.42h11.81v0.048zm-3.36 17.09q3.984 0 5.952-0.288 2.016-0.336 2.784-1.152 0.816-0.816 0.816-2.4t-0.768-2.352q-0.72-0.816-2.736-1.104-1.968-0.288-6.048-0.288h-6.624v7.584zm35.95 8.016q13.92-0.096 23.04-0.48-0.624 2.448-0.768 4.704t-0.144 5.472h-33.84q0.384-9.312 0.384-17.42t-0.384-17.42h11.71zm57.17 9.696q-0.912-2.736-2.448-6.864h-15.31l-2.4 6.864h-12.05l13.44-34.85h17.66l13.54 34.85zm-5.184-14.35q-1.824-5.04-3.744-10.08l-1.152-3.12q-1.68 4.368-4.944 13.2z" stroke-width=".2646" aria-label="PLA"/>
  <path d="m259.4 156.6h20.5v19.87h-8.448l-1.008-8.496q-1.44 4.56-5.136 6.768t-9.024 2.208q-4.848 0-8.64-2.16-3.744-2.16-5.904-6.192-2.112-4.032-2.112-9.408 0-8.592 5.136-13.58t15.98-4.992q6.192 0 10.9 2.016 4.752 2.016 8.064 6.24-2.16 1.104-8.448 4.416l-1.2 0.672q-1.872-1.872-4.368-2.784-2.496-0.96-5.28-0.96-4.608 0-6.864 2.448-2.256 2.4-2.256 5.952 0 3.84 2.4 6.192 2.448 2.352 7.44 2.352 2.16 0 4.176-0.624 2.064-0.624 3.456-2.16h-9.36zm35.66 11.09q18.24-0.096 26.45-0.528-0.336 1.968-0.432 4.08-0.048 2.064-0.048 5.232h-37.3q0.384-9.312 0.384-17.42t-0.384-17.42h37.3v8.688h-25.97v4.608q2.304 0.048 6.816 0.048 7.632 0 15.79-0.288v8.256q-8.16-0.288-15.79-0.288-4.512 0-6.816 0.048zm70.56-26.02q-0.336 8.112-0.336 17.38 0 9.312 0.336 17.42h-17.18l-11.62-26.21 0.864 26.21h-12.34q0.384-9.312 0.384-17.42 0-8.064-0.384-17.38h17.66l11.66 26.93-0.816-26.93z" stroke-width=".2646" aria-label="GEN"/>
  <path d="m209.1 132.3c-14.59 0-26.46 11.87-26.46 26.46s11.87 26.46 26.46 26.46c14.59 0 26.46-11.87 26.46-26.46s-11.87-26.46-26.46-26.46zm0 4.232c12.3 0 22.22 9.926 22.22 22.22s-9.924 22.22-22.22 22.22-22.22-9.924-22.22-22.22 9.926-22.22 22.22-22.22z" style="paint-order:markers fill stroke"/>
  <path d="m209 138.2c-11.39 0-20.64 9.253-20.64 20.64s9.253 20.64 20.64 20.64 20.64-9.253 20.64-20.64-9.253-20.64-20.64-20.64zm0 2.117c10.24 0 18.52 8.28 18.52 18.52s-8.28 18.52-18.52 18.52-18.52-8.28-18.52-18.52 8.28-18.52 18.52-18.52z" style="paint-order:markers fill stroke"/>
  <path d="m223 164.1q-0.952 1.26-1.568 2.548-0.588 1.288-1.064 2.94-1.988-0.448-4.284-1.288-2.296-0.868-4.088-1.96v3.304h-5.824v-3.304q-1.848 1.092-4.144 1.96t-4.228 1.288q-0.476-1.652-1.092-2.94-0.588-1.288-1.54-2.548 2.912 0 5.544-0.28 2.66-0.28 4.648-0.728h-8.316v-9.744h9.128v-0.588h-10.16v-3.808h10.16v-1.036h5.824v1.036h10.16v3.808h-10.16v0.588h9.128v9.744h-8.316q1.988 0.448 4.62 0.728 2.66 0.28 5.572 0.28zm-16.83-7.084v-0.616h-3.444v0.616zm9.268 0v-0.616h-3.444v0.616zm-9.268 2.324h-3.444v0.616h3.444zm5.824 0v0.616h3.444v-0.616z" stroke-width=".2646" aria-label="æ±"/>
 </g>
</svg>
